<svg xmlns="http://www.w3.org/2000/svg" viewBox="0 0 220 220" role="img" aria-labelledby="title desc">
  <title id="title">Vision Barber logo</title>
  <desc id="desc">Vintage barber pole with crossed razors and circular badge.</desc>
  <defs>
    <linearGradient id="pole" x1="0" y1="0" x2="1" y2="1">
      <stop offset="0" stop-color="#ffffff"/>
      <stop offset="1" stop-color="#d8d8d8"/>
    </linearGradient>
  </defs>
  <rect width="220" height="220" rx="32" fill="#ffffff"/>
  <circle cx="110" cy="110" r="82" fill="none" stroke="#111111" stroke-width="6"/>
  <circle cx="110" cy="110" r="72" fill="none" stroke="#111111" stroke-width="2.5"/>
  <g stroke="#111111" stroke-width="6" stroke-linecap="round">
    <path d="M57 77l36 30"/>
    <path d="M163 77l-36 30"/>
    <path d="M57 143l36-30"/>
    <path d="M163 143l-36-30"/>
  </g>
  <g fill="#111111">
    <circle cx="110" cy="34" r="18"/>
    <rect x="98" y="47" width="24" height="18" rx="6"/>
    <rect x="91" y="66" width="38" height="16" rx="6"/>
    <rect x="93" y="82" width="34" height="72" rx="10" fill="url(#pole)" stroke="#111111" stroke-width="4"/>
    <rect x="98" y="152" width="24" height="18" rx="6"/>
  </g>
  <path d="M96 86h28v20h-28z" fill="#f5f5f5"/>
  <path d="M94 86l30 20v22L94 108z" fill="#e63b4d"/>
  <path d="M124 86v20L94 126v-20z" fill="#2f60d5"/>
  <path d="M94 126l30 20v8H94z" fill="#f5f5f5"/>
  <path d="M94 126l30 20v8L94 134z" fill="#e63b4d"/>
  <path d="M124 126v20l-30 20v-20z" fill="#2f60d5"/>
  <rect x="38" y="89" width="144" height="42" rx="10" fill="#ffffff" stroke="#111111" stroke-width="5"/>
  <text x="110" y="117" text-anchor="middle" font-family="Georgia, serif" font-size="28" font-weight="700" fill="#111111">VB</text>
</svg>
